<svg xmlns="http://www.w3.org/2000/svg" version="1.1" xmlns:xlink="http://www.w3.org/1999/xlink" xmlns:svgjs="http://svgjs.dev/svgjs" width="1000" height="804" viewBox="0 0 1000 804"><g transform="matrix(1,0,0,1,-0.3111270206124459,0.3261071588329969)"><svg viewBox="0 0 307 247" data-background-color="#ffffff" preserveAspectRatio="xMidYMid meet" height="804" width="1000" xmlns="http://www.w3.org/2000/svg" xmlns:xlink="http://www.w3.org/1999/xlink"><g id="tight-bounds" transform="matrix(1,0,0,1,0.09551599532801447,-0.09997365579206985)"><svg viewBox="0 0 306.808837260274 247.2" height="247.2" width="306.808837260274"><g><svg viewBox="0 0 306.808837260274 247.2" height="247.2" width="306.808837260274"><g><svg viewBox="0 0 306.808837260274 247.2" height="247.2" width="306.808837260274"><g><svg viewBox="0 0 306.808837260274 247.2" height="247.2" width="306.808837260274"><g><svg viewBox="0 0 306.808837260274 247.2" height="247.2" width="306.808837260274"><path d="M306.091 53.02C304.648 27.36 300.537 20.227 300.537 20.227 287.917-6.202 272.166-0.506 258.016 3.292 233.034 3.446 208.153 9.091 183.229 12.119 130.914 12.581 78.152 4.986 26.097 23.717 21.207 29.464-5.073 24.846 0.87 56.304 2.428 69.39 8.11 83.913 7.937 95.922 8.716 98.026 9.798 93.202 10.26 96.23 11.875 104.39 14.515 100.541 16.678 105.365 13.664 118.246 15.827 128.971 17.89 140.21 14.255 143.135 9.596 141.749 7.505 151.449 7.288 158.479 6.12 157.145 4.836 156.837 3.899 156.632 2.009 157.402 2.327 159.608 3.408 167.152-1.236 171.514 1.677 178.904-0.327 186.91 3.062 193.838 2.601 202.511 2.543 204.255 2.86 205.744 3.365 206.154 5.601 208.361 2.341 212.672 2.687 217.342 25.621 249.262 50.502 227.195 73.998 241.872 80.099 231.608 75.513 245.516 77.95 243.36 79.854 240.846 81.239 251.263 83.388 245.362 83.72 243.668 83.215 239.665 84.398 240.435 85.018 240.846 85.566 240.743 85.653 238.382 85.782 234.841 84.643 237.048 84.34 235.201 87.614 225.861 86.806 248.081 89.879 247.158 89.734 244.438 88.84 240.538 90.672 241.051 92.489 237.151 92.547 233.918 94.163 242.693 94.22 244.592 94.509 245.926 94.97 246.85 100.019 237.305 105.038 250.237 110.332 245.926 113.577 241.205 116.692 248.492 119.981 246.696 121.135 245.259 122.303 242.693 123.414 247.004 137.015 247.928 151.511 244.079 164.406 247.158 198.864 241.41 235.688 249.518 272.022 241.923 280.589 238.998 289.489 234.841 297.84 231.506 297.84 231.506 304.605 222.371 304.605 181.316S306.047 145.393 306.264 112.703C306.48 80.013 307.49 78.679 306.047 53.02Z" opacity="1" fill="#1599fb" data-fill-palette-color="tertiary"></path><g transform="matrix(1,0,0,1,55.76832000000002,26.230666666666668)"><svg width="195.27219726027397" viewBox="-0.3500000238418579 -36.5 36.599998474121094 36.5" height="194.73866666666666" data-palette-color="#ffffff"><path d="M22.5-2.15L26.6-3.2 23.65-12.1 10.25-12.1 7.2-3.2 11.35-2.15 11.35 0-0.35 0-0.35-2.15 3.75-3.2 15.75-36.5 20.4-36.5 32.25-3.2 36.25-2.15 36.25 0 22.5 0 22.5-2.15ZM17.3-32.05L17.1-32.05 11.25-15 22.7-15 17.3-32.05Z" opacity="1" transform="matrix(1,0,0,1,0,0)" fill="#ffffff" class="undefined-text-0" data-fill-palette-color="quaternary" id="text-0"></path></svg></g></svg></g></svg></g></svg></g><g></g></svg></g><defs></defs></svg><rect width="306.808837260274" height="247.2" fill="none" stroke="none" visibility="hidden"></rect></g></svg></g></svg>